<svg width="732" height="264" viewBox="0 0 732 264" fill="none" xmlns="http://www.w3.org/2000/svg">
<path d="M175.234 90.3955C166.143 81.37 151.679 80.9282 142.062 89.07C141.5 89.536 140.955 90.0309 140.427 90.5547C140.185 90.7951 139.949 91.0392 139.719 91.2868L85.1695 145.442C75.6102 154.932 75.6102 170.318 85.1695 179.809C94.7288 189.299 110.227 189.299 119.787 179.808L138.409 161.321H138.606C143.558 156.329 150.445 153.234 158.06 153.234C167.056 153.234 174 158.19 180.01 164.218L195.788 179.882C205.348 189.373 220.846 189.373 230.406 179.882C232.642 177.662 234.364 175.119 235.554 172.404C239.548 161.857 247.816 153.492 259.442 153.492H262.476C274.316 153.492 283.161 162.119 286.313 173.047C289.361 180.981 297.052 187 306.114 187H312.72C324.448 187 334 177.179 334 165.537V98.0803C334 86.438 324.493 77 312.766 77H306.16C294.989 77 287.102 85.5058 286.258 96.381C285.349 119.727 264.726 138.434 240.987 138.434C226.768 138.434 215.29 130.429 206.072 121.358L175.234 90.3955Z" fill="#001938"/>
<path d="M398.739 123.85C398.26 123.85 397.908 123.395 398.022 122.923L406.439 88.0631C406.52 87.728 406.817 87.4923 407.157 87.4923H417.711C418.052 87.4923 418.348 87.7285 418.429 88.064L426.801 122.924C426.914 123.395 426.562 123.85 426.083 123.85H420.028C419.682 123.85 419.383 123.607 419.307 123.265L417.705 116.016C417.629 115.674 417.33 115.431 416.984 115.431H407.859C407.514 115.431 407.215 115.673 407.139 116.014L405.515 123.267C405.439 123.608 405.14 123.85 404.795 123.85H398.739ZM408.707 109.017C408.655 109.251 408.831 109.474 409.067 109.474H415.802C416.038 109.474 416.214 109.252 416.162 109.018L412.626 93.0774C412.583 92.8827 412.309 92.8825 412.266 93.0771L408.707 109.017Z" fill="#001938"/>
<path d="M435.317 123.85C434.909 123.85 434.579 123.515 434.579 123.101V88.2904C434.579 87.8768 434.909 87.5415 435.317 87.5415H441.14C441.548 87.5415 441.879 87.8768 441.879 88.2904V123.101C441.879 123.515 441.548 123.85 441.14 123.85H435.317Z" fill="#001938"/>
<path d="M493.669 110.582C494.077 110.582 494.41 110.917 494.387 111.33C494.311 112.663 494.031 114.014 493.549 115.382C492.977 117.007 492.102 118.508 490.925 119.887C489.748 121.249 488.261 122.348 486.464 123.185C484.666 124.022 482.551 124.441 480.117 124.441C476.857 124.441 474.074 123.645 471.767 122.053C469.461 120.445 467.696 118.237 466.471 115.431C465.262 112.609 464.658 109.359 464.658 105.683C464.658 102.024 465.262 98.791 466.471 95.9848C467.696 93.1621 469.461 90.9631 471.767 89.3877C474.074 87.7959 476.857 87 480.117 87C482.821 87 485.128 87.5087 487.036 88.5262C488.961 89.5436 490.495 90.8647 491.641 92.4893C492.802 94.114 493.597 95.8289 494.026 97.634C494.219 98.4666 494.339 99.2756 494.386 100.061C494.41 100.474 494.077 100.809 493.669 100.809H487.727C487.319 100.809 486.992 100.474 486.957 100.062C486.937 99.8311 486.908 99.6045 486.869 99.3817C486.631 97.593 485.931 96.1078 484.77 94.9263C483.609 93.7283 482.058 93.1293 480.117 93.1293C477.827 93.1293 475.934 94.155 474.439 96.2063C472.944 98.2412 472.197 101.4 472.197 105.683C472.197 109.983 472.944 113.167 474.439 115.234C475.934 117.286 477.827 118.311 480.117 118.311C481.581 118.311 482.821 117.95 483.839 117.228C484.857 116.506 485.637 115.562 486.177 114.397C486.618 113.435 486.879 112.412 486.961 111.33C486.992 110.918 487.319 110.582 487.727 110.582H493.669Z" fill="#001938"/>
<path d="M522.431 117.942C522.839 117.942 523.169 118.277 523.169 118.691V123.101C523.169 123.515 522.839 123.85 522.431 123.85H502.508C502.1 123.85 501.769 123.515 501.769 123.101V88.2904C501.769 87.8768 502.1 87.5415 502.508 87.5415H522.431C522.839 87.5415 523.169 87.8768 523.169 88.2904V92.7005C523.169 93.1141 522.839 93.4493 522.431 93.4493H509.951C509.543 93.4493 509.213 93.7846 509.213 94.1981V101.931C509.213 102.345 509.543 102.68 509.951 102.68H519.782C520.19 102.68 520.521 103.015 520.521 103.429V107.839C520.521 108.253 520.19 108.588 519.782 108.588H509.951C509.543 108.588 509.213 108.923 509.213 109.337V117.193C509.213 117.607 509.543 117.942 509.951 117.942H522.431Z" fill="#001938"/>
<path d="M537.789 123.101C537.789 123.515 537.458 123.85 537.05 123.85H531.298C530.89 123.85 530.56 123.515 530.56 123.101V88.2904C530.56 87.8768 530.89 87.5415 531.298 87.5415H541.538C541.85 87.5415 542.129 87.7408 542.234 88.0393L552.245 116.551C552.315 116.749 552.604 116.699 552.604 116.489V88.2904C552.604 87.8768 552.935 87.5415 553.343 87.5415H559.07C559.478 87.5415 559.809 87.8768 559.809 88.2904V123.101C559.809 123.515 559.478 123.85 559.07 123.85H548.759C548.447 123.85 548.168 123.651 548.063 123.353L538.147 95.182C538.078 94.9841 537.789 95.0348 537.789 95.2449V123.101Z" fill="#001938"/>
<path d="M591.986 92.7005C591.986 93.1141 591.655 93.4493 591.247 93.4493H584.064C583.656 93.4493 583.325 93.7846 583.325 94.1981V123.101C583.325 123.515 582.995 123.85 582.587 123.85H576.692C576.284 123.85 575.954 123.515 575.954 123.101V94.1981C575.954 93.7846 575.623 93.4493 575.215 93.4493H568.056C567.648 93.4493 567.317 93.1141 567.317 92.7005V88.2904C567.317 87.8768 567.648 87.5415 568.056 87.5415H591.247C591.655 87.5415 591.986 87.8768 591.986 88.2904V92.7005Z" fill="#001938"/>
<path d="M620.138 117.942C620.546 117.942 620.876 118.277 620.876 118.691V123.101C620.876 123.515 620.546 123.85 620.138 123.85H600.215C599.807 123.85 599.476 123.515 599.476 123.101V88.2904C599.476 87.8768 599.807 87.5415 600.215 87.5415H620.138C620.546 87.5415 620.876 87.8768 620.876 88.2904V92.7005C620.876 93.1141 620.546 93.4493 620.138 93.4493H607.658C607.251 93.4493 606.92 93.7846 606.92 94.1981V101.931C606.92 102.345 607.251 102.68 607.658 102.68H617.49C617.898 102.68 618.228 103.015 618.228 103.429V107.839C618.228 108.253 617.898 108.588 617.49 108.588H607.658C607.251 108.588 606.92 108.923 606.92 109.337V117.193C606.92 117.607 607.251 117.942 607.658 117.942H620.138Z" fill="#001938"/>
<path d="M629.006 123.85C628.598 123.85 628.267 123.515 628.267 123.101V88.2904C628.267 87.8768 628.598 87.5415 629.006 87.5415H643.002C646.692 87.5415 649.443 88.4113 651.256 90.1508C653.085 91.8739 654 94.3601 654 97.6094C654 99.4802 653.65 101.08 652.95 102.409C652.266 103.722 651.415 104.74 650.398 105.462C650.31 105.525 650.222 105.586 650.135 105.644C649.389 106.143 649.379 106.288 650.135 106.656C651.01 107.083 652.423 108.539 652.98 109.474C653.536 110.41 653.815 111.665 653.815 113.24V120.157C653.815 120.962 653.87 121.708 653.982 122.397C654.098 123.014 653.601 123.85 652.982 123.85H646.91C646.66 123.85 646.421 123.723 646.318 123.492C645.984 122.749 645.817 121.637 645.817 120.157V114.127C645.817 112.699 645.459 111.599 644.743 110.828C644.028 110.04 642.882 109.647 641.308 109.647H636.258C635.85 109.647 635.52 109.982 635.52 110.395V123.101C635.52 123.515 635.189 123.85 634.781 123.85H629.006ZM641.26 93.4247H636.258C635.85 93.4247 635.52 93.76 635.52 94.1735V102.99C635.52 103.403 635.85 103.739 636.258 103.739H641.403C642.835 103.739 644.02 103.246 644.958 102.262C645.912 101.277 646.389 99.9561 646.389 98.2986C646.389 96.7725 645.936 95.5827 645.03 94.7294C644.139 93.8596 642.882 93.4247 641.26 93.4247Z" fill="#001938"/>
<path d="M417.504 160.986C417.504 161.456 417.122 161.837 416.651 161.837H406.254C405.783 161.837 405.401 162.218 405.401 162.688V175.756C405.401 176.226 405.019 176.607 404.547 176.607H398.853C398.382 176.607 398 176.226 398 175.756V141.149C398 140.679 398.382 140.298 398.853 140.298H418.775C419.247 140.298 419.629 140.679 419.629 141.149V145.355C419.629 145.825 419.247 146.206 418.775 146.206H406.254C405.783 146.206 405.401 146.587 405.401 147.057V155.078C405.401 155.548 405.783 155.929 406.254 155.929H416.651C417.122 155.929 417.504 156.31 417.504 156.78V160.986Z" fill="#001938"/>
<path d="M447.664 170.699C448.135 170.699 448.518 171.08 448.518 171.55V175.756C448.518 176.226 448.135 176.607 447.664 176.607H427.957C427.486 176.607 427.104 176.226 427.104 175.756V141.149C427.104 140.679 427.486 140.298 427.957 140.298H447.664C448.135 140.298 448.518 140.679 448.518 141.149V145.355C448.518 145.825 448.135 146.206 447.664 146.206H435.405C434.934 146.206 434.552 146.587 434.552 147.057V154.586C434.552 155.056 434.934 155.437 435.405 155.437H445.014C445.486 155.437 445.868 155.818 445.868 156.288V160.494C445.868 160.964 445.486 161.345 445.014 161.345H435.405C434.934 161.345 434.552 161.726 434.552 162.196V169.848C434.552 170.318 434.934 170.699 435.405 170.699H447.664Z" fill="#001938"/>
<path d="M476.593 170.699C477.065 170.699 477.447 171.08 477.447 171.55V175.756C477.447 176.226 477.065 176.607 476.593 176.607H456.886C456.415 176.607 456.033 176.226 456.033 175.756V141.149C456.033 140.679 456.415 140.298 456.886 140.298H476.593C477.065 140.298 477.447 140.679 477.447 141.149V145.355C477.447 145.825 477.065 146.206 476.593 146.206H464.335C463.863 146.206 463.481 146.587 463.481 147.057V154.586C463.481 155.056 463.863 155.437 464.335 155.437H473.944C474.415 155.437 474.797 155.818 474.797 156.288V160.494C474.797 160.964 474.415 161.345 473.944 161.345H464.335C463.863 161.345 463.481 161.726 463.481 162.196V169.848C463.481 170.318 463.863 170.699 464.335 170.699H476.593Z" fill="#001938"/>
<path d="M528.942 163.339C529.413 163.339 529.798 163.72 529.767 164.189C529.683 165.489 529.406 166.806 528.936 168.139C528.363 169.763 527.487 171.265 526.31 172.644C525.132 174.006 523.644 175.105 521.845 175.942C520.047 176.779 517.93 177.197 515.495 177.197C512.233 177.197 509.447 176.402 507.14 174.81C504.832 173.201 503.065 170.994 501.84 168.188C500.63 165.365 500.026 162.116 500.026 158.44C500.026 154.781 500.63 151.548 501.84 148.742C503.065 145.919 504.832 143.72 507.14 142.145C509.447 140.553 512.233 139.757 515.495 139.757C518.201 139.757 520.508 140.266 522.418 141.283C524.344 142.3 525.88 143.622 527.026 145.246C528.188 146.871 528.983 148.586 529.413 150.391C529.597 151.187 529.715 151.963 529.766 152.716C529.798 153.185 529.413 153.566 528.942 153.566H523.224C522.753 153.566 522.376 153.184 522.329 152.717C522.31 152.521 522.284 152.328 522.251 152.139C522.012 150.35 521.312 148.865 520.15 147.683C518.989 146.485 517.437 145.886 515.495 145.886C513.203 145.886 511.309 146.912 509.813 148.963C508.317 150.998 507.569 154.157 507.569 158.44C507.569 162.74 508.317 165.923 509.813 167.991C511.309 170.042 513.203 171.068 515.495 171.068C516.959 171.068 518.201 170.707 519.219 169.985C520.238 169.263 521.018 168.319 521.559 167.154C521.986 166.222 522.244 165.233 522.334 164.189C522.375 163.72 522.753 163.339 523.224 163.339H528.942Z" fill="#001938"/>
<path d="M561.848 145.355C561.848 145.825 561.466 146.206 560.995 146.206H554.035C553.564 146.206 553.182 146.587 553.182 147.057V175.756C553.182 176.226 552.8 176.607 552.329 176.607H546.659C546.187 176.607 545.805 176.226 545.805 175.756V147.057C545.805 146.587 545.423 146.206 544.952 146.206H538.017C537.545 146.206 537.163 145.825 537.163 145.355V141.149C537.163 140.679 537.545 140.298 538.017 140.298H560.995C561.466 140.298 561.848 140.679 561.848 141.149V145.355Z" fill="#001938"/>
<path d="M595.859 163.486C595.859 168.081 594.682 171.519 592.326 173.8C589.971 176.065 586.748 177.197 582.658 177.197C578.567 177.197 575.345 176.065 572.989 173.8C570.634 171.519 569.456 168.081 569.456 163.486V141.149C569.456 140.679 569.838 140.298 570.309 140.298H576.027C576.498 140.298 576.88 140.679 576.88 141.149V163.61C576.88 166.17 577.334 168.057 578.241 169.271C579.148 170.469 580.62 171.068 582.658 171.068C584.679 171.068 586.151 170.469 587.074 169.271C587.997 168.057 588.459 166.17 588.459 163.61V141.149C588.459 140.679 588.841 140.298 589.312 140.298H595.006C595.477 140.298 595.859 140.679 595.859 141.149V163.486Z" fill="#001938"/>
</svg>
